<svg xmlns="http://www.w3.org/2000/svg" viewBox="0 0 512 512" width="512" height="512">
  <defs>
    <linearGradient id="bgGrad" x1="0%" y1="0%" x2="100%" y2="100%">
      <stop offset="0%" stop-color="#0a1628"/>
      <stop offset="100%" stop-color="#1a2a4a"/>
    </linearGradient>
    <linearGradient id="goldGrad" x1="0%" y1="0%" x2="100%" y2="100%">
      <stop offset="0%" stop-color="#e8d5a3"/>
      <stop offset="50%" stop-color="#c9a84c"/>
      <stop offset="100%" stop-color="#a8893a"/>
    </linearGradient>
  </defs>
  <rect width="512" height="512" rx="100" fill="url(#bgGrad)"/>
  <rect x="24" y="24" width="464" height="464" rx="80" fill="none" stroke="url(#goldGrad)" stroke-width="8" opacity="0.6"/>
  <!-- Book and Tech Icon -->
  <g transform="translate(96, 96)">
    <!-- Monitor Base -->
    <rect x="20" y="20" width="280" height="190" rx="18" fill="#112240" stroke="url(#goldGrad)" stroke-width="10"/>
    <rect x="36" y="36" width="248" height="158" rx="8" fill="#07101e"/>
    <!-- Code / Data lines -->
    <rect x="60" y="60" width="90" height="12" rx="6" fill="#c9a84c"/>
    <rect x="60" y="85" width="140" height="10" rx="5" fill="#e8d5a3" opacity="0.8"/>
    <rect x="60" y="105" width="110" height="10" rx="5" fill="#e8d5a3" opacity="0.8"/>
    <rect x="60" y="125" width="180" height="10" rx="5" fill="#27ae60"/>
    <rect x="60" y="145" width="70" height="10" rx="5" fill="#c9a84c"/>
    <!-- Monitor stand -->
    <path d="M130 210 L190 210 L205 260 L115 260 Z" fill="url(#goldGrad)"/>
    <rect x="90" y="255" width="140" height="16" rx="8" fill="#c9a84c"/>
    <!-- Graduation Cap / Book Emblem -->
    <circle cx="250" cy="220" r="42" fill="#0a1628" stroke="url(#goldGrad)" stroke-width="6"/>
    <path d="M225 215 L250 202 L275 215 L250 228 Z" fill="#c9a84c"/>
    <polygon points="235,220 235,235 250,242 265,235 265,220 250,228" fill="#e8d5a3"/>
    <path d="M272 216 L278 226 L278 238" stroke="#c9a84c" stroke-width="3" fill="none"/>
  </g>
  <text x="256" y="445" font-family="'Inter', sans-serif" font-size="34" font-weight="900" fill="#e8d5a3" text-anchor="middle" letter-spacing="3">MEDUCA · TECH</text>
</svg>